<svg width="136" height="143" viewBox="0 0 136 143" fill="none" xmlns="http://www.w3.org/2000/svg">
<path d="M12.72 19.6299L128.58 106.46H12.72V19.6299Z" fill="white"/>
<path d="M119.71 142.33C102.61 142.33 85.51 142.35 68.41 142.39C42.76 142.39 42.76 142.72 17.11 142.72C8.40999 142.72 1.97998 135.27 1.97998 126.57C1.97998 99.1198 0.75 99.1197 0.75 71.6597C0.75 44.1997 2.01001 44.2098 2.01001 16.7498C2.01001 8.04976 8.39998 1.12964 17.1 1.12964C42.75 1.12964 42.75 1.25977 68.4 1.25977C94.05 1.25977 94.0499 0.859863 119.7 0.859863C128.4 0.859863 135.52 8.04976 135.52 16.7498C135.52 44.1998 135.28 44.1997 135.28 71.6597C135.28 99.1197 135.94 99.1098 135.94 126.57C135.94 135.27 128.4 142.34 119.69 142.34L119.71 142.33ZM17.11 29.0098C16.16 29.0098 15.4 29.8298 15.4 30.7798C15.4 64.6398 15.73 64.6398 15.73 98.4998C15.73 99.4498 16.16 100.91 17.11 100.91C42.76 100.91 42.76 99.6797 68.41 99.6797C94.06 99.6797 94.06 100.94 119.71 100.94C120.66 100.94 121.63 99.4397 121.63 98.4897C121.63 64.6297 121.76 64.6298 121.76 30.7698C121.76 29.8198 120.66 29.1199 119.71 29.1199C102.61 29.1199 85.51 29.0965 68.41 29.0498C51.31 29.0031 34.21 28.9831 17.11 28.9897V29.0098Z" fill="black"/>
<path d="M68.85 134.51C76.1125 134.51 82 128.623 82 121.36C82 114.098 76.1125 108.21 68.85 108.21C61.5874 108.21 55.7 114.098 55.7 121.36C55.7 128.623 61.5874 134.51 68.85 134.51Z" fill="#F3EEE6"/>
<path d="M68.8499 19.6296C71.7549 19.6296 74.1099 17.2749 74.1099 14.3699C74.1099 11.4649 71.7549 9.10986 68.8499 9.10986C65.9448 9.10986 63.5898 11.4649 63.5898 14.3699C63.5898 17.2749 65.9448 19.6296 68.8499 19.6296Z" fill="#F3EEE6"/>
<path d="M79.3698 16.9998C80.8223 16.9998 81.9998 15.8224 81.9998 14.3699C81.9998 12.9174 80.8223 11.7397 79.3698 11.7397C77.9172 11.7397 76.7397 12.9174 76.7397 14.3699C76.7397 15.8224 77.9172 16.9998 79.3698 16.9998Z" fill="#F3EEE6"/>
</svg>
