<svg width="139" height="451" viewBox="0 0 139 451" fill="none" xmlns="http://www.w3.org/2000/svg">
<path d="M120.3 449.29C94.6499 449.29 94.6499 449.48 68.9999 449.48C43.3499 449.48 43.3499 450.52 17.6999 450.52C8.99989 450.52 3.99988 442.27 3.99988 433.57C3.99988 403.86 0.109863 403.86 0.109863 374.16C0.109863 344.46 4.09985 344.46 4.09985 314.75C4.09985 285.05 2.41986 285.05 2.41986 255.34C2.41986 225.63 2.8399 225.63 2.8399 195.93C2.8399 166.22 1.56989 166.22 1.56989 136.52C1.56989 106.81 1.78986 106.81 1.78986 77.1097C1.78986 47.3997 2.54987 47.3997 2.54987 17.6997C2.54987 8.99971 8.98989 0.449707 17.6999 0.449707C43.3499 0.449707 43.3499 1.33972 68.9999 1.33972C94.6499 1.33972 94.6499 0.89978 120.3 0.89978C129 0.89978 138.08 8.9897 138.08 17.6897C138.08 47.3997 136.05 47.3997 136.05 77.0997C136.05 106.8 134.05 106.8 134.05 136.51C134.05 166.21 134.46 166.21 134.46 195.92C134.46 225.63 135.58 225.63 135.58 255.33C135.58 285.04 136.71 285.04 136.71 314.74C136.71 344.44 135.67 344.45 135.67 374.15C135.67 403.86 136.87 403.86 136.87 433.56C136.87 442.26 129.01 449.28 120.3 449.28V449.29ZM17.6899 29.8998C16.7399 29.8998 16.0599 30.7697 16.0599 31.7197C16.0599 62.8697 17.0999 62.8698 17.0999 94.0198C17.0999 125.17 13.8399 125.17 13.8399 156.31C13.8399 187.46 17.7299 187.46 17.7299 218.61C17.7299 249.76 13.7399 249.76 13.7399 280.91C13.7399 312.06 15.4199 312.06 15.4199 343.21C15.4199 374.36 14.9999 374.36 14.9999 405.51C14.9999 406.46 16.7299 406.93 17.6799 406.93C43.3299 406.93 43.3299 407.15 68.9799 407.15C94.6299 407.15 94.6299 407.91 120.28 407.91C121.23 407.91 120.57 406.47 120.57 405.52C120.57 374.37 121.46 374.37 121.46 343.22C121.46 312.07 121.02 312.07 121.02 280.93C121.02 249.78 120.03 249.78 120.03 218.63C120.03 187.48 122.06 187.48 122.06 156.33C122.06 125.18 124.06 125.18 124.06 94.0298C124.06 62.8798 123.65 62.8797 123.65 31.7297C123.65 30.7797 121.23 29.4697 120.27 29.4697C94.6199 29.4697 94.6199 30.6197 68.9698 30.5997C43.3198 30.5797 43.3199 29.9098 17.6699 29.9098L17.6899 29.8998Z" fill="black"/>
<path d="M69.4401 441.51C76.7026 441.51 82.5901 435.623 82.5901 428.36C82.5901 421.098 76.7026 415.21 69.4401 415.21C62.1775 415.21 56.29 421.098 56.29 428.36C56.29 435.623 62.1775 441.51 69.4401 441.51Z" fill="#F3EEE6"/>
<path d="M69.4397 20.5601C72.3447 20.5601 74.6997 18.2051 74.6997 15.3C74.6997 12.395 72.3447 10.04 69.4397 10.04C66.5347 10.04 64.1797 12.395 64.1797 15.3C64.1797 18.2051 66.5347 20.5601 69.4397 20.5601Z" fill="#F3EEE6"/>
<path d="M79.9596 17.9299C81.4121 17.9299 82.5896 16.7524 82.5896 15.2999C82.5896 13.8474 81.4121 12.6699 79.9596 12.6699C78.5071 12.6699 77.3296 13.8474 77.3296 15.2999C77.3296 16.7524 78.5071 17.9299 79.9596 17.9299Z" fill="#F3EEE6"/>
</svg>
